# xmcd
#
# Track frame offsets: 
#        150
#        28655
#        45591
#        68881
#        101255
#        160386
#        190206
#        220652
#        259483
#        291583
#        330586
#
# Disc length: 4770 seconds
#
# Revision: 0
# Processed by: cddbd v1.5.2PL0 Copyright (c) Steve Scherf et al.
# Submitted via: ExactAudioCopy v0.95a4
#
DISCID=a412a00b
DTITLE=Boogie Boys - Live At Satyr Blues Festival
DYEAR=2013
DGENRE=Rock
TTITLE0=Bad Trip
TTITLE1=Cool Breeze
TTITLE2=Big Time Downtown
TTITLE3=Fortepian I Ja
TTITLE4=Honky Tonk Train Blues
TTITLE5=Where'd You Stay Last Night
TTITLE6=Sugar
TTITLE7=Boogie Boys Are In Town
TTITLE8=Hey You!
TTITLE9=Great Balls Of Fire
TTITLE10=Everybody Needs Somebody To Love
EXTD=
EXTT0=
EXTT1=
EXTT2=
EXTT3=
EXTT4=
EXTT5=
EXTT6=
EXTT7=
EXTT8=
EXTT9=
EXTT10=
PLAYORDER=
